<?xml version="1.0" standalone="no"?>
<!DOCTYPE svg PUBLIC "-//W3C//DTD SVG 20010904//EN"
 "http://www.w3.org/TR/2001/REC-SVG-20010904/DTD/svg10.dtd">
<svg version="1.0" xmlns="http://www.w3.org/2000/svg"
 width="200.000000pt" height="200.000000pt" viewBox="0 0 200.000000 200.000000"
 preserveAspectRatio="xMidYMid meet">

<g transform="translate(0.000000,200.000000) scale(0.100000,-0.100000)"
fill="#000000" stroke="none">
<path d="M1103 1809 c-23 -11 -49 -31 -58 -45 -14 -22 -22 -24 -84 -24 -169 0
-337 -57 -476 -161 -46 -35 -50 -37 -77 -23 -115 60 -263 -66 -228 -195 19
-73 91 -131 162 -131 48 1 112 33 139 71 20 29 24 46 24 113 0 77 1 79 34 107
46 38 162 94 236 114 33 9 98 19 145 22 l85 6 12 -45 c8 -31 25 -56 52 -81 67
-60 152 -62 218 -4 66 58 80 132 40 207 -43 81 -140 111 -224 69z m138 -88
c20 -20 29 -39 29 -61 0 -43 -47 -90 -90 -90 -43 0 -90 47 -90 90 0 43 47 90
90 90 22 0 41 -9 61 -29z"/>
<path d="M816 1495 c-199 -57 -354 -217 -401 -416 -68 -289 113 -586 405 -664
63 -17 209 -20 259 -5 29 8 38 6 63 -15 141 -119 346 50 255 209 -36 63 -68
81 -145 81 -55 0 -73 -4 -101 -24 -38 -27 -70 -91 -71 -138 0 -29 -4 -33 -36
-39 -62 -11 -195 2 -257 26 -80 30 -173 103 -219 172 -218 321 5 748 391 748
70 0 160 -18 203 -41 14 -7 15 -15 7 -44 -13 -47 4 -106 42 -150 99 -112 289
-41 289 107 0 65 -24 114 -70 144 -51 34 -100 40 -155 20 -43 -17 -45 -17
-117 10 -89 33 -261 43 -342 19z m494 -905 c47 -47 36 -115 -23 -143 -36 -18
-38 -18 -74 0 -59 29 -69 98 -21 143 29 27 91 27 118 0z"/>
<path d="M700 1293 c-59 -22 -110 -95 -110 -158 0 -88 80 -167 168 -167 111 0
187 89 169 198 -6 33 -5 34 30 34 88 0 188 -64 224 -145 24 -53 24 -147 0
-200 -18 -41 -103 -125 -126 -125 -6 0 -23 17 -36 37 -72 111 -213 113 -286 4
-28 -41 -31 -117 -6 -168 56 -118 245 -115 299 6 13 30 28 44 66 62 63 30 141
114 162 175 20 61 21 157 0 217 -21 61 -93 141 -158 175 -43 22 -65 27 -136
28 -58 0 -95 6 -117 17 -31 16 -111 22 -143 10z m125 -98 c34 -33 34 -87 0
-120 -57 -58 -155 -16 -155 65 0 10 12 32 26 49 34 41 92 44 129 6z"/>
<path d="M1637 965 c-101 -36 -145 -141 -97 -235 11 -21 29 -45 41 -54 l21
-15 -30 -53 c-135 -233 -394 -372 -659 -355 -153 10 -307 74 -422 174 l-44 39
17 31 c62 121 -61 269 -194 233 -106 -29 -157 -135 -111 -236 30 -66 72 -89
162 -89 75 0 75 0 130 -46 153 -131 356 -199 554 -186 275 19 507 167 646 413
26 46 34 52 69 57 53 7 98 41 121 91 23 52 23 90 0 141 -22 49 -48 73 -98 91
-47 16 -59 16 -106 -1z m94 -80 c53 -28 63 -87 23 -134 -20 -24 -34 -31 -63
-31 -90 0 -124 114 -48 160 39 24 49 25 88 5z m-1374 -245 c52 -31 57 -97 11
-140 -25 -23 -84 -27 -109 -7 -50 39 -48 115 4 147 40 25 54 25 94 0z"/>
</g>
</svg>
